<svg xmlns="http://www.w3.org/2000/svg" width="246" height="18" fill="currentColor">
  <path d="M.5 8h100v2H.5zM111.19 4.181 122.086.164a2.626 2.626 0 0 1 1.828 0l10.896 4.017c.92.34.92 1.798 0 2.137l-1.899.7c.417.619.673 1.373.698 2.2.376.258.641.725.641 1.282 0 .505-.222.93-.541 1.202l.997 5.385c.087.469-.21.913-.61.913h-2.192c-.4 0-.696-.444-.61-.913l.998-5.385a1.565 1.565 0 0 1-.542-1.202c0-.542.253-.996.612-1.26-.03-.704-.33-1.326-.808-1.72l-7.64 2.816a2.63 2.63 0 0 1-1.828 0L111.19 6.319c-.92-.34-.92-1.798 0-2.138Zm10.529 7.589a3.68 3.68 0 0 0 2.562 0l5.665-2.088L130.5 15c0 1.657-3.358 3-7.5 3-4.142 0-7.5-1.343-7.5-3l.554-5.319 5.665 2.089ZM145.5 8h100v2h-100z" />
</svg>