<svg xmlns="http://www.w3.org/2000/svg" width="14" height="16" fill="currentColor">
  <path d="M4 0a1 1 0 0 1 1 1v1h4V1a.999.999 0 1 1 2 0v1h1.5A1.5 1.5 0 0 1 14 3.5V5H0V3.5A1.5 1.5 0 0 1 1.5 2H3V1a1 1 0 0 1 1-1ZM0 6h14v8.5a1.5 1.5 0 0 1-1.5 1.5h-11A1.5 1.5 0 0 1 0 14.5V6Zm2 2.5v1c0 .275.225.5.5.5h1c.275 0 .5-.225.5-.5v-1c0-.275-.225-.5-.5-.5h-1c-.275 0-.5.225-.5.5Zm4 0v1c0 .275.225.5.5.5h1c.275 0 .5-.225.5-.5v-1c0-.275-.225-.5-.5-.5h-1c-.275 0-.5.225-.5.5Zm4.5-.5c-.275 0-.5.225-.5.5v1c0 .275.225.5.5.5h1c.275 0 .5-.225.5-.5v-1c0-.275-.225-.5-.5-.5h-1ZM2 12.5v1c0 .275.225.5.5.5h1c.275 0 .5-.225.5-.5v-1c0-.275-.225-.5-.5-.5h-1c-.275 0-.5.225-.5.5Zm4.5-.5c-.275 0-.5.225-.5.5v1c0 .275.225.5.5.5h1c.275 0 .5-.225.5-.5v-1c0-.275-.225-.5-.5-.5h-1Zm3.5.5v1c0 .275.225.5.5.5h1c.275 0 .5-.225.5-.5v-1c0-.275-.225-.5-.5-.5h-1c-.275 0-.5.225-.5.5Z" />
</svg>